<?xml version="1.0" encoding="UTF-8" standalone="no"?>
<svg
   xmlns:dc="http://purl.org/dc/elements/1.1/"
   xmlns:cc="http://creativecommons.org/ns#"
   xmlns:rdf="http://www.w3.org/1999/02/22-rdf-syntax-ns#"
   xmlns:svg="http://www.w3.org/2000/svg"
   xmlns="http://www.w3.org/2000/svg"
   xmlns:sodipodi="http://sodipodi.sourceforge.net/DTD/sodipodi-0.dtd"
   xmlns:inkscape="http://www.inkscape.org/namespaces/inkscape"
   height="28"
   width="45"
   version="1.1"
   id="svg4"
   sodipodi:docname="toggle_off.svg"
   inkscape:version="0.92.5 (2060ec1f9f, 2020-04-08)"
   inkscape:export-filename="/home/tong/Dropbox/cssgen/opimodel/contrib/images/toggle_off.png"
   inkscape:export-xdpi="512"
   inkscape:export-ydpi="512">
  <metadata
     id="metadata10">
    <rdf:RDF>
      <cc:Work
         rdf:about="">
        <dc:format>image/svg+xml</dc:format>
        <dc:type
           rdf:resource="http://purl.org/dc/dcmitype/StillImage" />
        <dc:title></dc:title>
      </cc:Work>
    </rdf:RDF>
  </metadata>
  <defs
     id="defs8" />
  <sodipodi:namedview
     pagecolor="#ffffff"
     bordercolor="#666666"
     borderopacity="1"
     objecttolerance="10"
     gridtolerance="10"
     guidetolerance="10"
     inkscape:pageopacity="0"
     inkscape:pageshadow="2"
     inkscape:window-width="3200"
     inkscape:window-height="1708"
     id="namedview6"
     showgrid="false"
     inkscape:zoom="19.218152"
     inkscape:cx="11.007157"
     inkscape:cy="27.832355"
     inkscape:window-x="0"
     inkscape:window-y="0"
     inkscape:window-maximized="1"
     inkscape:current-layer="svg4"
     fit-margin-top="0"
     fit-margin-left="0"
     fit-margin-right="0"
     fit-margin-bottom="0" />
  <g
     id="g818"
     transform="translate(0,-1.5)">
    <path
       inkscape:connector-curvature="0"
       style="fill:#3c643c;fill-opacity:1;stroke:#888a85;stroke-width:1;stroke-miterlimit:4;stroke-dasharray:none;stroke-opacity:1"
       id="path2"
       d="M 12.5,27.5 Q 7.5,27.5 4,24 0.5,20.5 0.5,15.5 0.5,10.5 4,7 7.5,3.5 12.5,3.5 h 20 q 5,0 8.5,3.5 3.5,3.5 3.5,8.5 0,5 -3.5,8.5 -3.5,3.5 -8.5,3.5 z m -0.05,-6.95 q 2.1,0 3.575,-1.475 Q 17.5,17.6 17.5,15.5 17.5,13.4 16.025,11.925 14.55,10.45 12.45,10.45 q -2.1,0 -3.575,1.475 Q 7.4,13.4 7.4,15.5 q 0,2.1 1.475,3.575 1.475,1.475 3.575,1.475 z" />
    <ellipse
       ry="8.6393375"
       rx="8.6393385"
       cy="15.5"
       cx="13"
       id="path812"
       style="opacity:1;fill:#f1f0ef;fill-opacity:1;fill-rule:nonzero;stroke:#888a85;stroke-width:0.72132385;stroke-linecap:round;stroke-linejoin:bevel;stroke-miterlimit:4;stroke-dasharray:none;stroke-dashoffset:0;stroke-opacity:1" />
  </g>
</svg>
