<?xml version="1.0" encoding="UTF-8" standalone="no"?>
<svg
   xmlns:dc="http://purl.org/dc/elements/1.1/"
   xmlns:cc="http://creativecommons.org/ns#"
   xmlns:rdf="http://www.w3.org/1999/02/22-rdf-syntax-ns#"
   xmlns:svg="http://www.w3.org/2000/svg"
   xmlns="http://www.w3.org/2000/svg"
   xmlns:sodipodi="http://sodipodi.sourceforge.net/DTD/sodipodi-0.dtd"
   xmlns:inkscape="http://www.inkscape.org/namespaces/inkscape"
   height="24"
   width="44"
   version="1.1"
   id="svg4"
   sodipodi:docname="toggle_off.svg"
   inkscape:version="0.92.5 (2060ec1f9f, 2020-04-08)">
  <metadata
     id="metadata10">
    <rdf:RDF>
      <cc:Work
         rdf:about="">
        <dc:format>image/svg+xml</dc:format>
        <dc:type
           rdf:resource="http://purl.org/dc/dcmitype/StillImage" />
        <dc:title></dc:title>
      </cc:Work>
    </rdf:RDF>
  </metadata>
  <defs
     id="defs8" />
  <sodipodi:namedview
     pagecolor="#ffffff"
     bordercolor="#666666"
     borderopacity="1"
     objecttolerance="10"
     gridtolerance="10"
     guidetolerance="10"
     inkscape:pageopacity="0"
     inkscape:pageshadow="2"
     inkscape:window-width="1858"
     inkscape:window-height="806"
     id="namedview6"
     showgrid="false"
     inkscape:zoom="12.916667"
     inkscape:cx="24"
     inkscape:cy="20.903226"
     inkscape:window-x="4894"
     inkscape:window-y="639"
     inkscape:window-maximized="0"
     inkscape:current-layer="svg4"
     fit-margin-top="0"
     fit-margin-left="0"
     fit-margin-right="0"
     fit-margin-bottom="0" />
  <path
     d="M 12,24 Q 7,24 3.5,20.5 0,17 0,12 0,7 3.5,3.5 7,0 12,0 H 32 Q 37,0 40.5,3.5 44,7 44,12 44,17 40.5,20.5 37,24 32,24 Z m -0.05,-6.95 q 2.1,0 3.575,-1.475 Q 17,14.1 17,12 17,9.9 15.525,8.425 14.05,6.95 11.95,6.95 9.85,6.95 8.375,8.425 6.9,9.9 6.9,12 q 0,2.1 1.475,3.575 1.475,1.475 3.575,1.475 z"
     id="path2"
     style="fill:#3c643c;fill-opacity:1"
     inkscape:connector-curvature="0" />
</svg>
